<?xml version="1.0" encoding="UTF-8"?>
<svg id="a" data-name="Слой 1" xmlns="http://www.w3.org/2000/svg" viewBox="0 0 512 512">
  <defs>
    <style>
      .b {
        fill: #8d67fd;
      }

      .c {
        fill: #fefdfe;
      }
    </style>
  </defs>
  <path class="b" d="M0,0H512V512H0V0Z"/>
  <path class="c" d="M262.65,90.96c26.25,.26,49.52,4.2,71.24,14.11,13.8,6.3,25.8,6.34,38.17-2.91,71.17-37.85,36.77,60.37,26.39,94.76-34.65,65.1-68.46-50.35-114.45-41.42-69.01,24.53,42.17,67.93,63.05,89.83,73.34,52.29,28.33,169.12-53.89,180.92-50.31,18.6-96.93-16.19-142.93-17.07-86.04,59.71-47.9-56.31-30.68-98.04,43.43-78.93,90.31,111.36,143.45,36.11-2.66-34.62-55.62-44.34-77.69-68.1-89.81-61.39-23.66-196.82,77.34-188.2Z"/>
</svg>